<?xml version="1.0" encoding="UTF-8" standalone="no"?>
<!DOCTYPE svg PUBLIC "-//W3C//DTD SVG 1.1//EN"
 "http://www.w3.org/Graphics/SVG/1.1/DTD/svg11.dtd">
<!-- Generated by graphviz version 2.49.3 (0)
 -->
<!-- Title: foobar Pages: 1 -->
<svg width="918pt" height="260pt"
 viewBox="0.00 0.00 918.00 260.00" xmlns="http://www.w3.org/2000/svg" xmlns:xlink="http://www.w3.org/1999/xlink">
<g id="graph0" class="graph" transform="scale(1 1) rotate(0) translate(4 256)">
<title>foobar</title>
<polygon fill="white" stroke="transparent" points="-4,4 -4,-256 914,-256 914,4 -4,4"/>
<!-- ps&#45;build -->
<g id="node1" class="node">
<title>ps&#45;build</title>
<polygon fill="none" stroke="blue" points="74,-180 0,-180 0,-144 74,-144 74,-180"/>
<text text-anchor="middle" x="37" y="-158.3" font-family="Times,serif" font-size="14.00">ps&#45;build</text>
</g>
<!-- ps&#45;clean -->
<g id="node2" class="node">
<title>ps&#45;clean</title>
<polygon fill="none" stroke="blue" points="164.5,-108 89.5,-108 89.5,-72 164.5,-72 164.5,-108"/>
<text text-anchor="middle" x="127" y="-86.3" font-family="Times,serif" font-size="14.00">ps&#45;clean</text>
</g>
<!-- ps&#45;build&#45;&gt;ps&#45;clean -->
<g id="edge1" class="edge">
<title>ps&#45;build&#45;&gt;ps&#45;clean</title>
<path fill="none" stroke="red" d="M59.25,-143.7C70.58,-134.88 84.53,-124.03 96.82,-114.47"/>
<polygon fill="red" stroke="red" points="99.26,-117.01 105.01,-108.1 94.97,-111.48 99.26,-117.01"/>
</g>
<!-- ps&#45;docs -->
<g id="node3" class="node">
<title>ps&#45;docs</title>
<polygon fill="none" stroke="blue" points="162,-180 92,-180 92,-144 162,-144 162,-180"/>
<text text-anchor="middle" x="127" y="-158.3" font-family="Times,serif" font-size="14.00">ps&#45;docs</text>
</g>
<!-- ps&#45;docs&#45;&gt;ps&#45;clean -->
<g id="edge2" class="edge">
<title>ps&#45;docs&#45;&gt;ps&#45;clean</title>
<path fill="none" stroke="red" d="M127,-143.7C127,-135.98 127,-126.71 127,-118.11"/>
<polygon fill="red" stroke="red" points="130.5,-118.1 127,-108.1 123.5,-118.1 130.5,-118.1"/>
</g>
<!-- ts&#45;clean -->
<g id="node4" class="node">
<title>ts&#45;clean</title>
<polygon fill="none" stroke="blue" points="434,-36 362,-36 362,0 434,0 434,-36"/>
<text text-anchor="middle" x="398" y="-14.3" font-family="Times,serif" font-size="14.00">ts&#45;clean</text>
</g>
<!-- nix&#45;docs -->
<g id="node5" class="node">
<title>nix&#45;docs</title>
<polygon fill="none" stroke="blue" points="338,-180 264,-180 264,-144 338,-144 338,-180"/>
<text text-anchor="middle" x="301" y="-158.3" font-family="Times,serif" font-size="14.00">nix&#45;docs</text>
</g>
<!-- ts&#45;install -->
<g id="node6" class="node">
<title>ts&#45;install</title>
<polygon fill="none" stroke="blue" points="437.5,-108 358.5,-108 358.5,-72 437.5,-72 437.5,-108"/>
<text text-anchor="middle" x="398" y="-86.3" font-family="Times,serif" font-size="14.00">ts&#45;install</text>
</g>
<!-- nix&#45;docs&#45;&gt;ts&#45;install -->
<g id="edge3" class="edge">
<title>nix&#45;docs&#45;&gt;ts&#45;install</title>
<path fill="none" stroke="red" d="M324.98,-143.7C337.31,-134.8 352.52,-123.82 365.85,-114.2"/>
<polygon fill="red" stroke="red" points="368.24,-116.79 374.3,-108.1 364.14,-111.12 368.24,-116.79"/>
</g>
<!-- ts&#45;install&#45;&gt;ts&#45;clean -->
<g id="edge4" class="edge">
<title>ts&#45;install&#45;&gt;ts&#45;clean</title>
<path fill="none" stroke="red" d="M398,-71.7C398,-63.98 398,-54.71 398,-46.11"/>
<polygon fill="red" stroke="red" points="401.5,-46.1 398,-36.1 394.5,-46.1 401.5,-46.1"/>
</g>
<!-- dist -->
<g id="node7" class="node">
<title>dist</title>
<polygon fill="none" stroke="blue" points="241,-252 187,-252 187,-216 241,-216 241,-252"/>
<text text-anchor="middle" x="214" y="-230.3" font-family="Times,serif" font-size="14.00">dist</text>
</g>
<!-- dist&#45;&gt;ps&#45;docs -->
<g id="edge6" class="edge">
<title>dist&#45;&gt;ps&#45;docs</title>
<path fill="none" stroke="red" d="M192.49,-215.7C181.54,-206.88 168.05,-196.03 156.18,-186.47"/>
<polygon fill="red" stroke="red" points="158.24,-183.65 148.26,-180.1 153.86,-189.1 158.24,-183.65"/>
</g>
<!-- dist&#45;&gt;nix&#45;docs -->
<g id="edge5" class="edge">
<title>dist&#45;&gt;nix&#45;docs</title>
<path fill="none" stroke="red" d="M235.51,-215.7C246.46,-206.88 259.95,-196.03 271.82,-186.47"/>
<polygon fill="red" stroke="red" points="274.14,-189.1 279.74,-180.1 269.76,-183.65 274.14,-189.1"/>
</g>
<!-- run&#45;nix&#45;example -->
<g id="node8" class="node">
<title>run&#45;nix&#45;example</title>
<polygon fill="none" stroke="blue" points="687.5,-252 556.5,-252 556.5,-216 687.5,-216 687.5,-252"/>
<text text-anchor="middle" x="622" y="-230.3" font-family="Times,serif" font-size="14.00">run&#45;nix&#45;example</text>
</g>
<!-- ps&#45;test -->
<g id="node9" class="node">
<title>ps&#45;test</title>
<polygon fill="none" stroke="blue" points="245.5,-180 180.5,-180 180.5,-144 245.5,-144 245.5,-180"/>
<text text-anchor="middle" x="213" y="-158.3" font-family="Times,serif" font-size="14.00">ps&#45;test</text>
</g>
<!-- ps&#45;test&#45;&gt;ps&#45;clean -->
<g id="edge7" class="edge">
<title>ps&#45;test&#45;&gt;ps&#45;clean</title>
<path fill="none" stroke="red" d="M191.74,-143.7C180.91,-134.88 167.58,-124.03 155.84,-114.47"/>
<polygon fill="red" stroke="red" points="157.98,-111.7 148.01,-108.1 153.56,-117.13 157.98,-111.7"/>
</g>
<!-- lock&#45;pkgs -->
<g id="node10" class="node">
<title>lock&#45;pkgs</title>
<polygon fill="none" stroke="blue" points="439.5,-180 356.5,-180 356.5,-144 439.5,-144 439.5,-180"/>
<text text-anchor="middle" x="398" y="-158.3" font-family="Times,serif" font-size="14.00">lock&#45;pkgs</text>
</g>
<!-- lock&#45;pkgs&#45;&gt;ts&#45;install -->
<g id="edge8" class="edge">
<title>lock&#45;pkgs&#45;&gt;ts&#45;install</title>
<path fill="none" stroke="red" d="M398,-143.7C398,-135.98 398,-126.71 398,-118.11"/>
<polygon fill="red" stroke="red" points="401.5,-118.1 398,-108.1 394.5,-118.1 401.5,-118.1"/>
</g>
<!-- bundle -->
<g id="node11" class="node">
<title>bundle</title>
<polygon fill="none" stroke="blue" points="522.5,-180 457.5,-180 457.5,-144 522.5,-144 522.5,-180"/>
<text text-anchor="middle" x="490" y="-158.3" font-family="Times,serif" font-size="14.00">bundle</text>
</g>
<!-- bundle&#45;&gt;ts&#45;install -->
<g id="edge9" class="edge">
<title>bundle&#45;&gt;ts&#45;install</title>
<path fill="none" stroke="red" d="M467.26,-143.7C455.56,-134.8 441.14,-123.82 428.49,-114.2"/>
<polygon fill="red" stroke="red" points="430.56,-111.37 420.48,-108.1 426.32,-116.94 430.56,-111.37"/>
</g>
<!-- materialize -->
<g id="node12" class="node">
<title>materialize</title>
<polygon fill="none" stroke="blue" points="538.5,-252 441.5,-252 441.5,-216 538.5,-216 538.5,-252"/>
<text text-anchor="middle" x="490" y="-230.3" font-family="Times,serif" font-size="14.00">materialize</text>
</g>
<!-- materialize&#45;&gt;bundle -->
<g id="edge10" class="edge">
<title>materialize&#45;&gt;bundle</title>
<path fill="none" stroke="red" d="M490,-215.7C490,-207.98 490,-198.71 490,-190.11"/>
<polygon fill="red" stroke="red" points="493.5,-190.1 490,-180.1 486.5,-190.1 493.5,-190.1"/>
</g>
<!-- check&#45;status -->
<g id="node13" class="node">
<title>check&#45;status</title>
<polygon fill="none" stroke="blue" points="812,-252 706,-252 706,-216 812,-216 812,-252"/>
<text text-anchor="middle" x="759" y="-230.3" font-family="Times,serif" font-size="14.00">check&#45;status</text>
</g>
<!-- generate -->
<g id="node14" class="node">
<title>generate</title>
<polygon fill="none" stroke="blue" points="910,-252 830,-252 830,-216 910,-216 910,-252"/>
<text text-anchor="middle" x="870" y="-230.3" font-family="Times,serif" font-size="14.00">generate</text>
</g>
</g>
</svg>
