<?xml version="1.0" encoding="UTF-8" standalone="no"?>
<!DOCTYPE svg PUBLIC "-//W3C//DTD SVG 1.1//EN"
 "http://www.w3.org/Graphics/SVG/1.1/DTD/svg11.dtd">
<!-- Generated by graphviz version 2.49.3 (0)
 -->
<!-- Title: foobar Pages: 1 -->
<svg width="906pt" height="260pt"
 viewBox="0.00 0.00 906.00 260.00" xmlns="http://www.w3.org/2000/svg" xmlns:xlink="http://www.w3.org/1999/xlink">
<g id="graph0" class="graph" transform="scale(1 1) rotate(0) translate(4 256)">
<title>foobar</title>
<polygon fill="white" stroke="transparent" points="-4,4 -4,-256 902,-256 902,4 -4,4"/>
<!-- ps&#45;build -->
<g id="node1" class="node">
<title>ps&#45;build</title>
<polygon fill="none" stroke="blue" points="74,-180 0,-180 0,-144 74,-144 74,-180"/>
<text text-anchor="middle" x="37" y="-158.3" font-family="Times,serif" font-size="14.00">ps&#45;build</text>
</g>
<!-- ps&#45;clean -->
<g id="node2" class="node">
<title>ps&#45;clean</title>
<polygon fill="none" stroke="blue" points="119.5,-108 44.5,-108 44.5,-72 119.5,-72 119.5,-108"/>
<text text-anchor="middle" x="82" y="-86.3" font-family="Times,serif" font-size="14.00">ps&#45;clean</text>
</g>
<!-- ps&#45;build&#45;&gt;ps&#45;clean -->
<g id="edge1" class="edge">
<title>ps&#45;build&#45;&gt;ps&#45;clean</title>
<path fill="none" stroke="red" d="M48.12,-143.7C53.36,-135.56 59.7,-125.69 65.48,-116.7"/>
<polygon fill="red" stroke="red" points="68.54,-118.41 71,-108.1 62.65,-114.62 68.54,-118.41"/>
</g>
<!-- ps&#45;docs -->
<g id="node3" class="node">
<title>ps&#45;docs</title>
<polygon fill="none" stroke="blue" points="162,-180 92,-180 92,-144 162,-144 162,-180"/>
<text text-anchor="middle" x="127" y="-158.3" font-family="Times,serif" font-size="14.00">ps&#45;docs</text>
</g>
<!-- ps&#45;docs&#45;&gt;ps&#45;clean -->
<g id="edge2" class="edge">
<title>ps&#45;docs&#45;&gt;ps&#45;clean</title>
<path fill="none" stroke="red" d="M115.88,-143.7C110.64,-135.56 104.3,-125.69 98.52,-116.7"/>
<polygon fill="red" stroke="red" points="101.35,-114.62 93,-108.1 95.46,-118.41 101.35,-114.62"/>
</g>
<!-- ts&#45;clean -->
<g id="node4" class="node">
<title>ts&#45;clean</title>
<polygon fill="none" stroke="blue" points="350,-36 278,-36 278,0 350,0 350,-36"/>
<text text-anchor="middle" x="314" y="-14.3" font-family="Times,serif" font-size="14.00">ts&#45;clean</text>
</g>
<!-- nix&#45;docs -->
<g id="node5" class="node">
<title>nix&#45;docs</title>
<polygon fill="none" stroke="blue" points="254,-180 180,-180 180,-144 254,-144 254,-180"/>
<text text-anchor="middle" x="217" y="-158.3" font-family="Times,serif" font-size="14.00">nix&#45;docs</text>
</g>
<!-- ts&#45;install -->
<g id="node6" class="node">
<title>ts&#45;install</title>
<polygon fill="none" stroke="blue" points="353.5,-108 274.5,-108 274.5,-72 353.5,-72 353.5,-108"/>
<text text-anchor="middle" x="314" y="-86.3" font-family="Times,serif" font-size="14.00">ts&#45;install</text>
</g>
<!-- nix&#45;docs&#45;&gt;ts&#45;install -->
<g id="edge3" class="edge">
<title>nix&#45;docs&#45;&gt;ts&#45;install</title>
<path fill="none" stroke="red" d="M240.98,-143.7C253.31,-134.8 268.52,-123.82 281.85,-114.2"/>
<polygon fill="red" stroke="red" points="284.24,-116.79 290.3,-108.1 280.14,-111.12 284.24,-116.79"/>
</g>
<!-- ts&#45;install&#45;&gt;ts&#45;clean -->
<g id="edge4" class="edge">
<title>ts&#45;install&#45;&gt;ts&#45;clean</title>
<path fill="none" stroke="red" d="M314,-71.7C314,-63.98 314,-54.71 314,-46.11"/>
<polygon fill="red" stroke="red" points="317.5,-46.1 314,-36.1 310.5,-46.1 317.5,-46.1"/>
</g>
<!-- dist -->
<g id="node7" class="node">
<title>dist</title>
<polygon fill="none" stroke="blue" points="199,-252 145,-252 145,-216 199,-216 199,-252"/>
<text text-anchor="middle" x="172" y="-230.3" font-family="Times,serif" font-size="14.00">dist</text>
</g>
<!-- dist&#45;&gt;ps&#45;docs -->
<g id="edge6" class="edge">
<title>dist&#45;&gt;ps&#45;docs</title>
<path fill="none" stroke="red" d="M160.88,-215.7C155.64,-207.56 149.3,-197.69 143.52,-188.7"/>
<polygon fill="red" stroke="red" points="146.35,-186.62 138,-180.1 140.46,-190.41 146.35,-186.62"/>
</g>
<!-- dist&#45;&gt;nix&#45;docs -->
<g id="edge5" class="edge">
<title>dist&#45;&gt;nix&#45;docs</title>
<path fill="none" stroke="red" d="M183.12,-215.7C188.36,-207.56 194.7,-197.69 200.48,-188.7"/>
<polygon fill="red" stroke="red" points="203.54,-190.41 206,-180.1 197.65,-186.62 203.54,-190.41"/>
</g>
<!-- run&#45;nix&#45;example -->
<g id="node8" class="node">
<title>run&#45;nix&#45;example</title>
<polygon fill="none" stroke="blue" points="603.5,-252 472.5,-252 472.5,-216 603.5,-216 603.5,-252"/>
<text text-anchor="middle" x="538" y="-230.3" font-family="Times,serif" font-size="14.00">run&#45;nix&#45;example</text>
</g>
<!-- test -->
<g id="node9" class="node">
<title>test</title>
<polygon fill="none" stroke="blue" points="676,-252 622,-252 622,-216 676,-216 676,-252"/>
<text text-anchor="middle" x="649" y="-230.3" font-family="Times,serif" font-size="14.00">test</text>
</g>
<!-- lock&#45;pkgs -->
<g id="node10" class="node">
<title>lock&#45;pkgs</title>
<polygon fill="none" stroke="blue" points="355.5,-180 272.5,-180 272.5,-144 355.5,-144 355.5,-180"/>
<text text-anchor="middle" x="314" y="-158.3" font-family="Times,serif" font-size="14.00">lock&#45;pkgs</text>
</g>
<!-- lock&#45;pkgs&#45;&gt;ts&#45;install -->
<g id="edge7" class="edge">
<title>lock&#45;pkgs&#45;&gt;ts&#45;install</title>
<path fill="none" stroke="red" d="M314,-143.7C314,-135.98 314,-126.71 314,-118.11"/>
<polygon fill="red" stroke="red" points="317.5,-118.1 314,-108.1 310.5,-118.1 317.5,-118.1"/>
</g>
<!-- bundle -->
<g id="node11" class="node">
<title>bundle</title>
<polygon fill="none" stroke="blue" points="438.5,-180 373.5,-180 373.5,-144 438.5,-144 438.5,-180"/>
<text text-anchor="middle" x="406" y="-158.3" font-family="Times,serif" font-size="14.00">bundle</text>
</g>
<!-- bundle&#45;&gt;ts&#45;install -->
<g id="edge8" class="edge">
<title>bundle&#45;&gt;ts&#45;install</title>
<path fill="none" stroke="red" d="M383.26,-143.7C371.56,-134.8 357.14,-123.82 344.49,-114.2"/>
<polygon fill="red" stroke="red" points="346.56,-111.37 336.48,-108.1 342.32,-116.94 346.56,-111.37"/>
</g>
<!-- materialize -->
<g id="node12" class="node">
<title>materialize</title>
<polygon fill="none" stroke="blue" points="454.5,-252 357.5,-252 357.5,-216 454.5,-216 454.5,-252"/>
<text text-anchor="middle" x="406" y="-230.3" font-family="Times,serif" font-size="14.00">materialize</text>
</g>
<!-- materialize&#45;&gt;bundle -->
<g id="edge9" class="edge">
<title>materialize&#45;&gt;bundle</title>
<path fill="none" stroke="red" d="M406,-215.7C406,-207.98 406,-198.71 406,-190.11"/>
<polygon fill="red" stroke="red" points="409.5,-190.1 406,-180.1 402.5,-190.1 409.5,-190.1"/>
</g>
<!-- check&#45;status -->
<g id="node13" class="node">
<title>check&#45;status</title>
<polygon fill="none" stroke="blue" points="800,-252 694,-252 694,-216 800,-216 800,-252"/>
<text text-anchor="middle" x="747" y="-230.3" font-family="Times,serif" font-size="14.00">check&#45;status</text>
</g>
<!-- generate -->
<g id="node14" class="node">
<title>generate</title>
<polygon fill="none" stroke="blue" points="898,-252 818,-252 818,-216 898,-216 898,-252"/>
<text text-anchor="middle" x="858" y="-230.3" font-family="Times,serif" font-size="14.00">generate</text>
</g>
</g>
</svg>
