<?xml version="1.0" encoding="UTF-8" standalone="no"?>
<!DOCTYPE svg PUBLIC "-//W3C//DTD SVG 1.1//EN"
 "http://www.w3.org/Graphics/SVG/1.1/DTD/svg11.dtd">
<!-- Generated by graphviz version 2.49.3 (0)
 -->
<!-- Title: foobar Pages: 1 -->
<svg width="443pt" height="587pt"
 viewBox="0.00 0.00 443.00 587.00" xmlns="http://www.w3.org/2000/svg" xmlns:xlink="http://www.w3.org/1999/xlink">
<g id="graph0" class="graph" transform="scale(1 1) rotate(0) translate(4 583)">
<title>foobar</title>
<polygon fill="white" stroke="transparent" points="-4,4 -4,-583 439,-583 439,4 -4,4"/>
<!-- ps&#45;build -->
<g id="node1" class="node">
<title>ps&#45;build</title>
<polygon fill="azure" stroke="blue" points="176,-210 102,-210 102,-174 176,-174 176,-210"/>
<text text-anchor="middle" x="139" y="-188.3" font-family="Times,serif" font-size="14.00">ps&#45;build</text>
</g>
<!-- ps&#45;clean -->
<g id="node2" class="node">
<title>ps&#45;clean</title>
<polygon fill="azure" stroke="blue" points="227.5,-36 152.5,-36 152.5,0 227.5,0 227.5,-36"/>
<text text-anchor="middle" x="190" y="-14.3" font-family="Times,serif" font-size="14.00">ps&#45;clean</text>
</g>
<!-- ps&#45;build&#45;&gt;ps&#45;clean -->
<g id="edge1" class="edge">
<title>ps&#45;build&#45;&gt;ps&#45;clean</title>
<path fill="none" stroke="red" d="M145.16,-173.77C149.98,-160.08 156.72,-140.41 162,-123 169.9,-96.98 177.86,-66.96 183.26,-45.88"/>
<polygon fill="red" stroke="red" points="186.69,-46.58 185.77,-36.03 179.91,-44.85 186.69,-46.58"/>
<text text-anchor="middle" x="178" y="-101.3" font-family="Times,serif" font-size="14.00">1</text>
</g>
<!-- ps&#45;test -->
<g id="node9" class="node">
<title>ps&#45;test</title>
<polygon fill="azure" stroke="blue" points="153.5,-123 88.5,-123 88.5,-87 153.5,-87 153.5,-123"/>
<text text-anchor="middle" x="121" y="-101.3" font-family="Times,serif" font-size="14.00">ps&#45;test</text>
</g>
<!-- ps&#45;build&#45;&gt;ps&#45;test -->
<g id="edge2" class="edge">
<title>ps&#45;build&#45;&gt;ps&#45;test</title>
<path fill="none" stroke="red" d="M135.36,-173.8C132.89,-162.16 129.59,-146.55 126.77,-133.24"/>
<polygon fill="red" stroke="red" points="130.13,-132.23 124.64,-123.18 123.28,-133.68 130.13,-132.23"/>
<text text-anchor="middle" x="137" y="-144.8" font-family="Times,serif" font-size="14.00">2</text>
</g>
<!-- ps&#45;docs -->
<g id="node3" class="node">
<title>ps&#45;docs</title>
<polygon fill="azure" stroke="blue" points="263,-264 193,-264 193,-228 263,-228 263,-264"/>
<text text-anchor="middle" x="228" y="-242.3" font-family="Times,serif" font-size="14.00">ps&#45;docs</text>
</g>
<!-- ps&#45;docs&#45;&gt;ps&#45;clean -->
<g id="edge3" class="edge">
<title>ps&#45;docs&#45;&gt;ps&#45;clean</title>
<path fill="none" stroke="red" d="M225.08,-227.64C218.5,-188.52 202.48,-93.21 194.57,-46.17"/>
<polygon fill="red" stroke="red" points="197.99,-45.39 192.88,-36.11 191.08,-46.55 197.99,-45.39"/>
<text text-anchor="middle" x="218" y="-144.8" font-family="Times,serif" font-size="14.00">1</text>
</g>
<!-- ts&#45;clean -->
<g id="node4" class="node">
<title>ts&#45;clean</title>
<polygon fill="azure" stroke="blue" points="333,-123 261,-123 261,-87 333,-87 333,-123"/>
<text text-anchor="middle" x="297" y="-101.3" font-family="Times,serif" font-size="14.00">ts&#45;clean</text>
</g>
<!-- nix&#45;docs -->
<g id="node5" class="node">
<title>nix&#45;docs</title>
<polygon fill="azure" stroke="blue" points="432,-318 358,-318 358,-282 432,-282 432,-318"/>
<text text-anchor="middle" x="395" y="-296.3" font-family="Times,serif" font-size="14.00">nix&#45;docs</text>
</g>
<!-- ts&#45;install -->
<g id="node6" class="node">
<title>ts&#45;install</title>
<polygon fill="azure" stroke="blue" points="336.5,-210 257.5,-210 257.5,-174 336.5,-174 336.5,-210"/>
<text text-anchor="middle" x="297" y="-188.3" font-family="Times,serif" font-size="14.00">ts&#45;install</text>
</g>
<!-- nix&#45;docs&#45;&gt;ts&#45;install -->
<g id="edge5" class="edge">
<title>nix&#45;docs&#45;&gt;ts&#45;install</title>
<path fill="none" stroke="red" d="M379.25,-281.97C363.21,-264.61 338.14,-237.5 319.9,-217.77"/>
<polygon fill="red" stroke="red" points="322.39,-215.31 313.03,-210.34 317.25,-220.06 322.39,-215.31"/>
<text text-anchor="middle" x="365" y="-242.3" font-family="Times,serif" font-size="14.00">2</text>
</g>
<!-- generate -->
<g id="node16" class="node">
<title>generate</title>
<polygon fill="azure" stroke="blue" points="435,-210 355,-210 355,-174 435,-174 435,-210"/>
<text text-anchor="middle" x="395" y="-188.3" font-family="Times,serif" font-size="14.00">generate</text>
</g>
<!-- nix&#45;docs&#45;&gt;generate -->
<g id="edge4" class="edge">
<title>nix&#45;docs&#45;&gt;generate</title>
<path fill="none" stroke="red" d="M395,-281.97C395,-265.38 395,-239.88 395,-220.43"/>
<polygon fill="red" stroke="red" points="398.5,-220.34 395,-210.34 391.5,-220.34 398.5,-220.34"/>
<text text-anchor="middle" x="400" y="-242.3" font-family="Times,serif" font-size="14.00">1</text>
</g>
<!-- ts&#45;install&#45;&gt;ts&#45;clean -->
<g id="edge6" class="edge">
<title>ts&#45;install&#45;&gt;ts&#45;clean</title>
<path fill="none" stroke="red" d="M297,-173.8C297,-162.16 297,-146.55 297,-133.24"/>
<polygon fill="red" stroke="red" points="300.5,-133.18 297,-123.18 293.5,-133.18 300.5,-133.18"/>
<text text-anchor="middle" x="302" y="-144.8" font-family="Times,serif" font-size="14.00">1</text>
</g>
<!-- dist -->
<g id="node7" class="node">
<title>dist</title>
<polygon fill="azure" stroke="blue" points="322,-405 268,-405 268,-369 322,-369 322,-405"/>
<text text-anchor="middle" x="295" y="-383.3" font-family="Times,serif" font-size="14.00">dist</text>
</g>
<!-- dist&#45;&gt;ps&#45;docs -->
<g id="edge8" class="edge">
<title>dist&#45;&gt;ps&#45;docs</title>
<path fill="none" stroke="red" d="M280.32,-368.89C269.72,-355.74 255.77,-336.71 247,-318 240.55,-304.23 235.99,-287.9 232.95,-274.37"/>
<polygon fill="red" stroke="red" points="236.31,-273.3 230.84,-264.23 229.45,-274.73 236.31,-273.3"/>
<text text-anchor="middle" x="272" y="-339.8" font-family="Times,serif" font-size="14.00">2</text>
</g>
<!-- dist&#45;&gt;nix&#45;docs -->
<g id="edge7" class="edge">
<title>dist&#45;&gt;nix&#45;docs</title>
<path fill="none" stroke="red" d="M315.24,-368.8C330.15,-356.13 350.61,-338.73 367.07,-324.74"/>
<polygon fill="red" stroke="red" points="369.44,-327.32 374.79,-318.18 364.91,-321.99 369.44,-327.32"/>
<text text-anchor="middle" x="356" y="-339.8" font-family="Times,serif" font-size="14.00">1</text>
</g>
<!-- run&#45;nix&#45;example -->
<g id="node8" class="node">
<title>run&#45;nix&#45;example</title>
<polygon fill="yellow" stroke="blue" points="285.5,-579 154.5,-579 154.5,-543 285.5,-543 285.5,-579"/>
<text text-anchor="middle" x="220" y="-557.3" font-family="Times,serif" font-size="14.00">run&#45;nix&#45;example</text>
</g>
<!-- ps&#45;test&#45;&gt;ps&#45;clean -->
<g id="edge9" class="edge">
<title>ps&#45;test&#45;&gt;ps&#45;clean</title>
<path fill="none" stroke="red" d="M134.96,-86.8C144.88,-74.59 158.35,-57.99 169.48,-44.28"/>
<polygon fill="red" stroke="red" points="172.47,-46.15 176.06,-36.18 167.04,-41.73 172.47,-46.15"/>
<text text-anchor="middle" x="165" y="-57.8" font-family="Times,serif" font-size="14.00">1</text>
</g>
<!-- lock&#45;pkgs -->
<g id="node10" class="node">
<title>lock&#45;pkgs</title>
<polygon fill="yellow" stroke="blue" points="339.5,-318 256.5,-318 256.5,-282 339.5,-282 339.5,-318"/>
<text text-anchor="middle" x="298" y="-296.3" font-family="Times,serif" font-size="14.00">lock&#45;pkgs</text>
</g>
<!-- lock&#45;pkgs&#45;&gt;ts&#45;install -->
<g id="edge10" class="edge">
<title>lock&#45;pkgs&#45;&gt;ts&#45;install</title>
<path fill="none" stroke="red" d="M297.84,-281.97C297.68,-265.38 297.44,-239.88 297.26,-220.43"/>
<polygon fill="red" stroke="red" points="300.76,-220.31 297.16,-210.34 293.76,-220.37 300.76,-220.31"/>
<text text-anchor="middle" x="303" y="-242.3" font-family="Times,serif" font-size="14.00">1</text>
</g>
<!-- bundle -->
<g id="node11" class="node">
<title>bundle</title>
<polygon fill="azure" stroke="blue" points="199.5,-318 134.5,-318 134.5,-282 199.5,-282 199.5,-318"/>
<text text-anchor="middle" x="167" y="-296.3" font-family="Times,serif" font-size="14.00">bundle</text>
</g>
<!-- bundle&#45;&gt;ps&#45;build -->
<g id="edge12" class="edge">
<title>bundle&#45;&gt;ps&#45;build</title>
<path fill="none" stroke="red" d="M153.83,-281.66C150.38,-276.27 147.05,-270.13 145,-264 140.33,-250.02 138.7,-233.68 138.3,-220.19"/>
<polygon fill="red" stroke="red" points="141.8,-220.06 138.21,-210.09 134.8,-220.13 141.8,-220.06"/>
<text text-anchor="middle" x="150" y="-242.3" font-family="Times,serif" font-size="14.00">2</text>
</g>
<!-- bundle&#45;&gt;ts&#45;install -->
<g id="edge11" class="edge">
<title>bundle&#45;&gt;ts&#45;install</title>
<path fill="none" stroke="red" d="M164.59,-281.99C163.35,-266.13 164.21,-242.78 177,-228 194.41,-207.88 222.67,-199.01 247.39,-195.22"/>
<polygon fill="red" stroke="red" points="247.91,-198.68 257.37,-193.93 247.01,-191.74 247.91,-198.68"/>
<text text-anchor="middle" x="182" y="-242.3" font-family="Times,serif" font-size="14.00">1</text>
</g>
<!-- materialize -->
<g id="node12" class="node">
<title>materialize</title>
<polygon fill="azure" stroke="blue" points="249.5,-405 152.5,-405 152.5,-369 249.5,-369 249.5,-405"/>
<text text-anchor="middle" x="201" y="-383.3" font-family="Times,serif" font-size="14.00">materialize</text>
</g>
<!-- materialize&#45;&gt;bundle -->
<g id="edge13" class="edge">
<title>materialize&#45;&gt;bundle</title>
<path fill="none" stroke="red" d="M194.12,-368.8C189.42,-357.05 183.1,-341.24 177.74,-327.84"/>
<polygon fill="red" stroke="red" points="180.83,-326.16 173.87,-318.18 174.33,-328.76 180.83,-326.16"/>
<text text-anchor="middle" x="192" y="-339.8" font-family="Times,serif" font-size="14.00">1</text>
</g>
<!-- check&#45;materialize -->
<g id="node13" class="node">
<title>check&#45;materialize</title>
<polygon fill="azure" stroke="blue" points="180,-492 38,-492 38,-456 180,-456 180,-492"/>
<text text-anchor="middle" x="109" y="-470.3" font-family="Times,serif" font-size="14.00">check&#45;materialize</text>
</g>
<!-- check&#45;materialize&#45;&gt;materialize -->
<g id="edge14" class="edge">
<title>check&#45;materialize&#45;&gt;materialize</title>
<path fill="none" stroke="red" d="M127.62,-455.8C141.21,-443.24 159.82,-426.05 174.89,-412.12"/>
<polygon fill="red" stroke="red" points="177.44,-414.53 182.41,-405.18 172.69,-409.39 177.44,-414.53"/>
<text text-anchor="middle" x="166" y="-426.8" font-family="Times,serif" font-size="14.00">1</text>
</g>
<!-- check&#45;status -->
<g id="node14" class="node">
<title>check&#45;status</title>
<polygon fill="azure" stroke="blue" points="134,-405 28,-405 28,-369 134,-369 134,-405"/>
<text text-anchor="middle" x="81" y="-383.3" font-family="Times,serif" font-size="14.00">check&#45;status</text>
</g>
<!-- check&#45;materialize&#45;&gt;check&#45;status -->
<g id="edge15" class="edge">
<title>check&#45;materialize&#45;&gt;check&#45;status</title>
<path fill="none" stroke="red" d="M103.33,-455.8C99.46,-444.05 94.25,-428.24 89.84,-414.84"/>
<polygon fill="red" stroke="red" points="93.11,-413.58 86.66,-405.18 86.46,-415.77 93.11,-413.58"/>
<text text-anchor="middle" x="102" y="-426.8" font-family="Times,serif" font-size="14.00">2</text>
</g>
<!-- task&#45;graph -->
<g id="node15" class="node">
<title>task&#45;graph</title>
<polygon fill="yellow" stroke="blue" points="396.5,-579 303.5,-579 303.5,-543 396.5,-543 396.5,-579"/>
<text text-anchor="middle" x="350" y="-557.3" font-family="Times,serif" font-size="14.00">task&#45;graph</text>
</g>
<!-- ci -->
<g id="node17" class="node">
<title>ci</title>
<polygon fill="yellow" stroke="blue" points="136,-579 82,-579 82,-543 136,-543 136,-579"/>
<text text-anchor="middle" x="109" y="-557.3" font-family="Times,serif" font-size="14.00">ci</text>
</g>
<!-- ci&#45;&gt;ps&#45;build -->
<g id="edge17" class="edge">
<title>ci&#45;&gt;ps&#45;build</title>
<path fill="none" stroke="red" d="M81.78,-551.98C49.49,-540.6 0,-516.4 0,-475 0,-475 0,-475 0,-299 0,-251.52 51.92,-222.48 92.3,-207.08"/>
<polygon fill="red" stroke="red" points="93.55,-210.35 101.75,-203.64 91.16,-203.77 93.55,-210.35"/>
<text text-anchor="middle" x="5" y="-383.3" font-family="Times,serif" font-size="14.00">2</text>
</g>
<!-- ci&#45;&gt;dist -->
<g id="edge18" class="edge">
<title>ci&#45;&gt;dist</title>
<path fill="none" stroke="red" d="M130.07,-542.79C146.41,-529.27 169.48,-509.83 189,-492 217.82,-465.67 249.63,-434.11 270.81,-412.71"/>
<polygon fill="red" stroke="red" points="273.57,-414.89 278.11,-405.32 268.59,-409.98 273.57,-414.89"/>
<text text-anchor="middle" x="232" y="-470.3" font-family="Times,serif" font-size="14.00">3</text>
</g>
<!-- ci&#45;&gt;check&#45;materialize -->
<g id="edge16" class="edge">
<title>ci&#45;&gt;check&#45;materialize</title>
<path fill="none" stroke="red" d="M109,-542.8C109,-531.16 109,-515.55 109,-502.24"/>
<polygon fill="red" stroke="red" points="112.5,-502.18 109,-492.18 105.5,-502.18 112.5,-502.18"/>
<text text-anchor="middle" x="114" y="-513.8" font-family="Times,serif" font-size="14.00">1</text>
</g>
</g>
</svg>
